<svg id="Layer_1" data-name="Layer 1" xmlns="http://www.w3.org/2000/svg" viewBox="0 0 126 126"><defs><style>.cls-1{fill:#049a8f;}</style></defs><path class="cls-1" d="M123,12H27A15,15,0,0,0,12,27v96a15,15,0,0,0,15,15h96a15,15,0,0,0,15-15V27A15,15,0,0,0,123,12ZM51,60v57H33V60ZM33,43.41c0-4.2,3.6-7.41,9-7.41s8.79,3.21,9,7.41c0,4.2-3.36,7.59-9,7.59C36.6,51,33,47.61,33,43.41ZM117,117H99V87c0-6-3-12-10.5-12.12h-.24C81,74.88,78,81.06,78,87v30H60V60H78v7.68A22.47,22.47,0,0,1,95.43,60C107.34,60,117,68.19,117,84.78Z" transform="translate(-12 -12)"/></svg>