<svg id="Layer_1" data-name="Layer 1" xmlns="http://www.w3.org/2000/svg" viewBox="0 0 95.69 94.52"><defs><style>.cls-1{fill:#f49f67;}</style></defs><path class="cls-1" d="M48,0A48,48,0,0,0,36.37,94.52,6.85,6.85,0,0,1,36,92.19V84H30c-3.29,0-6.21-1.41-7.62-4-1.6-3-1.88-7.43-5.77-10.16-1.16-.9-.28-1.94,1.05-1.8,2.46.7,4.5,2.38,6.42,4.89S26.9,76,30.47,76a46.37,46.37,0,0,0,6.76-.48c1.31-3.33,3.58-6.4,6.35-7.85C27.6,66,20,58.08,20,47.28a19.6,19.6,0,0,1,5.35-12.93c-1.11-3.76-2.5-11.43.42-14.35a16.69,16.69,0,0,1,12.58,5.92,36.32,36.32,0,0,1,23.35,0A16.72,16.72,0,0,1,74.26,20c2.93,2.92,1.52,10.62.41,14.38A19.63,19.63,0,0,1,80,47.28C80,58.07,72.36,66,56.4,67.67,60.8,70,64,76.4,64,81.25V92.19a7.64,7.64,0,0,1-.14,1.07A48,48,0,0,0,48,0Z" transform="translate(-0.2)"/></svg>