<svg id="Layer_1" data-name="Layer 1" xmlns="http://www.w3.org/2000/svg" viewBox="0 0 126 126"><defs><style>.cls-1{fill:#f49f67;}</style></defs><path class="cls-1" d="M111,0H15A15,15,0,0,0,0,15v96a15,15,0,0,0,15,15h96a15,15,0,0,0,15-15h0V15A15,15,0,0,0,111,0ZM39,48v57H21V48ZM21,31.41c0-4.2,3.6-7.41,9-7.41s8.79,3.21,9,7.41c0,4.2-3.36,7.59-9,7.59C24.6,39,21,35.61,21,31.41ZM105,105H87V75c0-6-3-12-10.5-12.12h-.24C69,62.88,66,69.06,66,75v30H48V48H66v7.68A22.46,22.46,0,0,1,83.43,48C95.34,48,105,56.19,105,72.78Z"/></svg>