<svg id="Layer_1" data-name="Layer 1" xmlns="http://www.w3.org/2000/svg" viewBox="0 0 96 94.52"><defs><style>.cls-1{fill:#049a8f;}</style></defs><path class="cls-1" d="M60,12a48,48,0,0,0-11.63,94.52,6.86,6.86,0,0,1-.37-2.33V96H42c-3.29,0-6.21-1.41-7.62-4C32.78,89,32.5,84.57,28.61,81.84c-1.16-.9-.28-1.94,1.05-1.8,2.46.7,4.5,2.38,6.42,4.89S38.9,88,42.47,88a46.32,46.32,0,0,0,6.76-.48c1.31-3.33,3.58-6.4,6.35-7.85C39.6,78,32,70.08,32,59.28a19.59,19.59,0,0,1,5.35-12.93c-1.11-3.76-2.5-11.43.42-14.35a16.69,16.69,0,0,1,12.58,5.92,36.37,36.37,0,0,1,23.35,0A16.69,16.69,0,0,1,86.26,32c2.93,2.92,1.52,10.62.41,14.38A19.62,19.62,0,0,1,92,59.28C92,70.07,84.36,78,68.4,79.67,72.8,82,76,88.4,76,93.25v10.94a6.93,6.93,0,0,1-.14,1.07A48,48,0,0,0,60,12Z" transform="translate(-12 -12)"/></svg>