<svg id="Layer_1" data-name="Layer 1" xmlns="http://www.w3.org/2000/svg" viewBox="0 0 104 84.52"><defs><style>.cls-1{fill:#049a8f;}</style></defs><path class="cls-1" d="M112,27.75a42.73,42.73,0,0,1-12.26,3.36,21.35,21.35,0,0,0,9.38-11.81,42.57,42.57,0,0,1-13.55,5.18,21.34,21.34,0,0,0-36.91,14.6,21.62,21.62,0,0,0,.56,4.86,60.53,60.53,0,0,1-44-22.3,21.36,21.36,0,0,0,6.6,28.49,21.17,21.17,0,0,1-9.66-2.67v.27A21.33,21.33,0,0,0,29.29,68.65a21.23,21.23,0,0,1-5.62.75,22.07,22.07,0,0,1-4-.38A21.34,21.34,0,0,0,39.59,83.84,43,43,0,0,1,8,92.68a60.39,60.39,0,0,0,32.7,9.58c39.25,0,60.71-32.51,60.71-60.71q0-1.38-.06-2.76A43.49,43.49,0,0,0,112,27.75Z" transform="translate(-8 -17.74)"/></svg>